<svg width="101" height="117" viewBox="0 0 101 117" fill="none" xmlns="http://www.w3.org/2000/svg">
<path d="M1 16C1 13.7909 2.79086 12 5 12H96C98.2091 12 100 13.7909 100 16V65H1V16Z" fill="#F2F8F5" stroke="#98DEB5" stroke-width="2"/>
<path d="M1 63.6643C1 61.4552 2.79086 59.6643 5 59.6643H96C98.2091 59.6643 100 61.4552 100 63.6643V86.9555H1V63.6643Z" fill="#F2F8F5" stroke="#98DEB5" stroke-width="2"/>
<path d="M37.78 9.39C37.78 14.0237 34.0237 17.78 29.39 17.78C24.7563 17.78 21 14.0237 21 9.39C21 4.75633 24.7563 1 29.39 1C34.0237 1 37.78 4.75633 37.78 9.39Z" fill="white" stroke="#34C87E" stroke-width="2"/>
<path d="M12 29C12 25.134 15.134 22 19 22H40C43.866 22 47 25.134 47 29V57C47 58.6569 45.6569 60 44 60H15C13.3431 60 12 58.6569 12 57V29Z" fill="white" stroke="#34C87E" stroke-width="2"/>
<rect x="17" y="52.7463" width="10.8955" height="35.2537" rx="5.44776" fill="white" stroke="#34C87E" stroke-width="2"/>
<rect x="32.0448" y="52.7463" width="10.8955" height="35.2537" rx="5.44776" fill="white" stroke="#34C87E" stroke-width="2"/>
<rect x="12" y="96" width="35" height="2" fill="#272C29"/>
<rect x="46" y="100" width="6" height="2" transform="rotate(-90 46 100)" fill="#272C29"/>
<rect x="11" y="100" width="6" height="2" transform="rotate(-90 11 100)" fill="#272C29"/>
<path d="M12.9297 110.35C12.9297 106.998 14.2949 105.322 17.0254 105.322C17.4551 105.322 17.8184 105.355 18.1152 105.422V106.57C17.8184 106.484 17.4746 106.441 17.084 106.441C16.166 106.441 15.4766 106.688 15.0156 107.18C14.5547 107.672 14.3047 108.461 14.2656 109.547H14.3359C14.5195 109.23 14.7773 108.986 15.1094 108.814C15.4414 108.639 15.832 108.551 16.2812 108.551C17.0586 108.551 17.6641 108.789 18.0977 109.266C18.5312 109.742 18.748 110.389 18.748 111.205C18.748 112.104 18.4961 112.814 17.9922 113.338C17.4922 113.857 16.8086 114.117 15.9414 114.117C15.3281 114.117 14.7949 113.971 14.3418 113.678C13.8887 113.381 13.5391 112.951 13.293 112.389C13.0508 111.822 12.9297 111.143 12.9297 110.35ZM15.918 112.98C16.3906 112.98 16.7539 112.828 17.0078 112.523C17.2656 112.219 17.3945 111.783 17.3945 111.217C17.3945 110.725 17.2734 110.338 17.0312 110.057C16.793 109.775 16.4336 109.635 15.9531 109.635C15.6562 109.635 15.3828 109.699 15.1328 109.828C14.8828 109.953 14.6855 110.127 14.541 110.35C14.3965 110.568 14.3242 110.793 14.3242 111.023C14.3242 111.574 14.4727 112.039 14.7695 112.418C15.0703 112.793 15.4531 112.98 15.918 112.98ZM25.5684 109.717C25.5684 111.205 25.3281 112.311 24.8477 113.033C24.3711 113.756 23.6406 114.117 22.6562 114.117C21.7031 114.117 20.9805 113.744 20.4883 112.998C19.9961 112.252 19.75 111.158 19.75 109.717C19.75 108.205 19.9883 107.092 20.4648 106.377C20.9453 105.658 21.6758 105.299 22.6562 105.299C23.6133 105.299 24.3379 105.674 24.8301 106.424C25.3223 107.174 25.5684 108.271 25.5684 109.717ZM21.1445 109.717C21.1445 110.885 21.2637 111.719 21.502 112.219C21.7441 112.719 22.1289 112.969 22.6562 112.969C23.1836 112.969 23.5684 112.715 23.8105 112.207C24.0566 111.699 24.1797 110.869 24.1797 109.717C24.1797 108.568 24.0566 107.738 23.8105 107.227C23.5684 106.711 23.1836 106.453 22.6562 106.453C22.1289 106.453 21.7441 106.705 21.502 107.209C21.2637 107.713 21.1445 108.549 21.1445 109.717ZM32.8047 114.117C31.8242 114.117 31.0781 113.832 30.5664 113.262C30.0586 112.688 29.8047 111.865 29.8047 110.795C29.8047 109.705 30.0703 108.867 30.6016 108.281C31.1367 107.695 31.9082 107.402 32.916 107.402C33.5996 107.402 34.2148 107.529 34.7617 107.783L34.3457 108.891C33.7637 108.664 33.2832 108.551 32.9043 108.551C31.7832 108.551 31.2227 109.295 31.2227 110.783C31.2227 111.51 31.3613 112.057 31.6387 112.424C31.9199 112.787 32.3301 112.969 32.8691 112.969C33.4824 112.969 34.0625 112.816 34.6094 112.512V113.713C34.3633 113.857 34.0996 113.961 33.8184 114.023C33.541 114.086 33.2031 114.117 32.8047 114.117ZM41.5938 114H40.2109V110.004C40.2109 109.508 40.1172 109.139 39.9297 108.896C39.7422 108.65 39.4492 108.527 39.0508 108.527C38.5195 108.527 38.1289 108.701 37.8789 109.049C37.6328 109.393 37.5098 109.967 37.5098 110.771V114H36.1328V107.52H37.2109L37.4043 108.369H37.4746C37.6543 108.061 37.9141 107.822 38.2539 107.654C38.5977 107.486 38.9746 107.402 39.3848 107.402C40.3809 107.402 41.041 107.742 41.3652 108.422H41.459C41.6504 108.102 41.9199 107.852 42.2676 107.672C42.6152 107.492 43.0137 107.402 43.4629 107.402C44.2363 107.402 44.7988 107.598 45.1504 107.988C45.5059 108.379 45.6836 108.975 45.6836 109.775V114H44.3066V110.004C44.3066 109.508 44.2109 109.139 44.0195 108.896C43.832 108.65 43.5391 108.527 43.1406 108.527C42.6055 108.527 42.2129 108.695 41.9629 109.031C41.7168 109.363 41.5938 109.875 41.5938 110.566V114Z" fill="#272C29"/>
<path d="M80.78 9.39C80.78 14.0237 77.0237 17.78 72.39 17.78C67.7563 17.78 64 14.0237 64 9.39C64 4.75633 67.7563 1 72.39 1C77.0237 1 80.78 4.75633 80.78 9.39Z" fill="white" stroke="#34C87E" stroke-width="2"/>
<path d="M55 29C55 25.134 58.134 22 62 22H83C86.866 22 90 25.134 90 29V57C90 58.6569 88.6569 60 87 60H58C56.3431 60 55 58.6569 55 57V29Z" fill="white" stroke="#34C87E" stroke-width="2"/>
<rect x="60" y="52.7463" width="10.8955" height="35.2537" rx="5.44776" fill="white" stroke="#34C87E" stroke-width="2"/>
<rect x="75.0448" y="52.7463" width="10.8955" height="35.2537" rx="5.44776" fill="white" stroke="#34C87E" stroke-width="2"/>
<rect x="55" y="96" width="35" height="2" fill="#272C29"/>
<rect x="89" y="100" width="6" height="2" transform="rotate(-90 89 100)" fill="#272C29"/>
<rect x="54" y="100" width="6" height="2" transform="rotate(-90 54 100)" fill="#272C29"/>
<path d="M55.9297 110.35C55.9297 106.998 57.2949 105.322 60.0254 105.322C60.4551 105.322 60.8184 105.355 61.1152 105.422V106.57C60.8184 106.484 60.4746 106.441 60.084 106.441C59.166 106.441 58.4766 106.688 58.0156 107.18C57.5547 107.672 57.3047 108.461 57.2656 109.547H57.3359C57.5195 109.23 57.7773 108.986 58.1094 108.814C58.4414 108.639 58.832 108.551 59.2812 108.551C60.0586 108.551 60.6641 108.789 61.0977 109.266C61.5312 109.742 61.748 110.389 61.748 111.205C61.748 112.104 61.4961 112.814 60.9922 113.338C60.4922 113.857 59.8086 114.117 58.9414 114.117C58.3281 114.117 57.7949 113.971 57.3418 113.678C56.8887 113.381 56.5391 112.951 56.293 112.389C56.0508 111.822 55.9297 111.143 55.9297 110.35ZM58.918 112.98C59.3906 112.98 59.7539 112.828 60.0078 112.523C60.2656 112.219 60.3945 111.783 60.3945 111.217C60.3945 110.725 60.2734 110.338 60.0312 110.057C59.793 109.775 59.4336 109.635 58.9531 109.635C58.6562 109.635 58.3828 109.699 58.1328 109.828C57.8828 109.953 57.6855 110.127 57.541 110.35C57.3965 110.568 57.3242 110.793 57.3242 111.023C57.3242 111.574 57.4727 112.039 57.7695 112.418C58.0703 112.793 58.4531 112.98 58.918 112.98ZM68.5684 109.717C68.5684 111.205 68.3281 112.311 67.8477 113.033C67.3711 113.756 66.6406 114.117 65.6562 114.117C64.7031 114.117 63.9805 113.744 63.4883 112.998C62.9961 112.252 62.75 111.158 62.75 109.717C62.75 108.205 62.9883 107.092 63.4648 106.377C63.9453 105.658 64.6758 105.299 65.6562 105.299C66.6133 105.299 67.3379 105.674 67.8301 106.424C68.3223 107.174 68.5684 108.271 68.5684 109.717ZM64.1445 109.717C64.1445 110.885 64.2637 111.719 64.502 112.219C64.7441 112.719 65.1289 112.969 65.6562 112.969C66.1836 112.969 66.5684 112.715 66.8105 112.207C67.0566 111.699 67.1797 110.869 67.1797 109.717C67.1797 108.568 67.0566 107.738 66.8105 107.227C66.5684 106.711 66.1836 106.453 65.6562 106.453C65.1289 106.453 64.7441 106.705 64.502 107.209C64.2637 107.713 64.1445 108.549 64.1445 109.717ZM75.8047 114.117C74.8242 114.117 74.0781 113.832 73.5664 113.262C73.0586 112.688 72.8047 111.865 72.8047 110.795C72.8047 109.705 73.0703 108.867 73.6016 108.281C74.1367 107.695 74.9082 107.402 75.916 107.402C76.5996 107.402 77.2148 107.529 77.7617 107.783L77.3457 108.891C76.7637 108.664 76.2832 108.551 75.9043 108.551C74.7832 108.551 74.2227 109.295 74.2227 110.783C74.2227 111.51 74.3613 112.057 74.6387 112.424C74.9199 112.787 75.3301 112.969 75.8691 112.969C76.4824 112.969 77.0625 112.816 77.6094 112.512V113.713C77.3633 113.857 77.0996 113.961 76.8184 114.023C76.541 114.086 76.2031 114.117 75.8047 114.117ZM84.5938 114H83.2109V110.004C83.2109 109.508 83.1172 109.139 82.9297 108.896C82.7422 108.65 82.4492 108.527 82.0508 108.527C81.5195 108.527 81.1289 108.701 80.8789 109.049C80.6328 109.393 80.5098 109.967 80.5098 110.771V114H79.1328V107.52H80.2109L80.4043 108.369H80.4746C80.6543 108.061 80.9141 107.822 81.2539 107.654C81.5977 107.486 81.9746 107.402 82.3848 107.402C83.3809 107.402 84.041 107.742 84.3652 108.422H84.459C84.6504 108.102 84.9199 107.852 85.2676 107.672C85.6152 107.492 86.0137 107.402 86.4629 107.402C87.2363 107.402 87.7988 107.598 88.1504 107.988C88.5059 108.379 88.6836 108.975 88.6836 109.775V114H87.3066V110.004C87.3066 109.508 87.2109 109.139 87.0195 108.896C86.832 108.65 86.5391 108.527 86.1406 108.527C85.6055 108.527 85.2129 108.695 84.9629 109.031C84.7168 109.363 84.5938 109.875 84.5938 110.566V114Z" fill="#272C29"/>
</svg>
